<?xml version="1.0" encoding="UTF-8"?>
<!DOCTYPE svg PUBLIC "-//W3C//DTD SVG 1.1//EN" "http://www.w3.org/Graphics/SVG/1.1/DTD/svg11.dtd">
<svg xmlns="http://www.w3.org/2000/svg" version="1.1" width="48px" height="48px" style="shape-rendering:geometricPrecision; text-rendering:geometricPrecision; image-rendering:optimizeQuality; fill-rule:evenodd; clip-rule:evenodd" xmlns:xlink="http://www.w3.org/1999/xlink">
<g><path style="opacity:1" fill="#f7ce38" d="M 46.5,11.5 C 45.8333,12.8333 45.1667,14.1667 44.5,15.5C 44.7373,14.209 44.404,13.209 43.5,12.5C 32.5,11.1667 21.5,11.1667 10.5,12.5C 10.1667,12.5 9.83333,12.5 9.5,12.5C 8.50838,12.3284 7.84171,12.6618 7.5,13.5C 6.5,13.5 5.5,13.5 4.5,13.5C 4.63088,12.6236 4.29755,11.9569 3.5,11.5C 2.83333,13.5 2.16667,15.5 1.5,17.5C 0.519979,14.9135 0.186646,12.2469 0.5,9.5C 11.7066,8.70521 22.8733,8.37188 34,8.5C 37.8686,8.72808 41.7019,9.22808 45.5,10C 46.056,10.3826 46.3893,10.8826 46.5,11.5 Z"/></g>
<g><path style="opacity:1" fill="#4178b2" d="M 43.5,12.5 C 43.5,15.1667 43.5,17.8333 43.5,20.5C 40.1667,20.5 36.8333,20.5 33.5,20.5C 33.5,17.8333 33.5,15.1667 33.5,12.5C 36.8333,12.5 40.1667,12.5 43.5,12.5 Z"/></g>
<g><path style="opacity:1" fill="#4178b2" d="M 9.5,12.5 C 9.83333,12.5 10.1667,12.5 10.5,12.5C 13.8333,12.5 17.1667,12.5 20.5,12.5C 20.5,15.5 20.5,18.5 20.5,21.5C 16.8333,21.5 13.1667,21.5 9.5,21.5C 9.5,18.5 9.5,15.5 9.5,12.5 Z"/></g>
<g><path style="opacity:1" fill="#325a8b" d="M 43.5,12.5 C 44.404,13.209 44.7373,14.209 44.5,15.5C 44.5,18.8333 44.5,22.1667 44.5,25.5C 40.8333,25.5 37.1667,25.5 33.5,25.5C 33.5,23.8333 33.5,22.1667 33.5,20.5C 36.8333,20.5 40.1667,20.5 43.5,20.5C 43.5,17.8333 43.5,15.1667 43.5,12.5 Z"/></g>
<g><path style="opacity:1" fill="#497ab0" d="M 4.5,13.5 C 5.5,13.5 6.5,13.5 7.5,13.5C 8.48489,17.6344 8.81822,21.9677 8.5,26.5C 5.52989,26.7458 4.19656,28.4124 4.5,31.5C 3.72094,26.0058 3.72094,20.3391 4.5,14.5C 4.5,14.1667 4.5,13.8333 4.5,13.5 Z"/></g>
<g><path style="opacity:1" fill="#345783" d="M 7.5,13.5 C 7.84171,12.6618 8.50838,12.3284 9.5,12.5C 9.5,15.5 9.5,18.5 9.5,21.5C 13.1667,21.5 16.8333,21.5 20.5,21.5C 20.5,22.8333 20.5,24.1667 20.5,25.5C 17.9407,25.1984 15.6074,25.5318 13.5,26.5C 10.3388,27.9131 7.33883,29.5797 4.5,31.5C 4.19656,28.4124 5.52989,26.7458 8.5,26.5C 8.81822,21.9677 8.48489,17.6344 7.5,13.5 Z"/></g>
<g><path style="opacity:0.997" fill="#7792ab" d="M 4.5,14.5 C 3.72094,20.3391 3.72094,26.0058 4.5,31.5C 4.15829,32.3382 3.49162,32.6716 2.5,32.5C 2.10494,26.2384 2.77161,20.2384 4.5,14.5 Z"/></g>
<g><path style="opacity:1" fill="#5c6158" d="M 10.5,12.5 C 21.5,11.1667 32.5,11.1667 43.5,12.5C 40.1667,12.5 36.8333,12.5 33.5,12.5C 33.5,15.1667 33.5,17.8333 33.5,20.5C 33.5,22.1667 33.5,23.8333 33.5,25.5C 37.1667,25.5 40.8333,25.5 44.5,25.5C 44.5,25.8333 44.5,26.1667 44.5,26.5C 34.1667,26.5 23.8333,26.5 13.5,26.5C 15.6074,25.5318 17.9407,25.1984 20.5,25.5C 20.5,24.1667 20.5,22.8333 20.5,21.5C 20.5,18.5 20.5,15.5 20.5,12.5C 17.1667,12.5 13.8333,12.5 10.5,12.5 Z"/></g>
<g><path style="opacity:1" fill="#346095" d="M 21.5,16.5 C 25.1667,16.5 28.8333,16.5 32.5,16.5C 32.5,19.5 32.5,22.5 32.5,25.5C 28.8333,25.5 25.1667,25.5 21.5,25.5C 21.5,22.5 21.5,19.5 21.5,16.5 Z"/></g>
<g><path style="opacity:1" fill="#4e8ecd" d="M 32.5,16.5 C 28.8333,16.5 25.1667,16.5 21.5,16.5C 21.5,15.1667 21.5,13.8333 21.5,12.5C 25.1667,12.5 28.8333,12.5 32.5,12.5C 32.5,13.8333 32.5,15.1667 32.5,16.5 Z"/></g>
<g><path style="opacity:1" fill="#dddddb" d="M 13.5,26.5 C 23.8333,26.5 34.1667,26.5 44.5,26.5C 44.5,27.5 44.5,28.5 44.5,29.5C 33.8281,29.3335 23.1615,29.5002 12.5,30C 8.92907,30.5209 6.42907,32.3542 5,35.5C 4.58309,34.244 3.74975,33.5774 2.5,33.5C 2.5,33.1667 2.5,32.8333 2.5,32.5C 3.49162,32.6716 4.15829,32.3382 4.5,31.5C 7.33883,29.5797 10.3388,27.9131 13.5,26.5 Z"/></g>
<g><path style="opacity:1" fill="#f7b02e" d="M 44.5,29.5 C 37.2395,31.4651 29.5729,32.1318 21.5,31.5C 16.3,31.4331 11.3,32.4331 6.5,34.5C 7.24269,35.1818 7.90935,35.8485 8.5,36.5C 7.76589,37.7079 7.43255,39.0413 7.5,40.5C 5.83333,40.5 4.16667,40.5 2.5,40.5C 2.5,38.1667 2.5,35.8333 2.5,33.5C 3.74975,33.5774 4.58309,34.244 5,35.5C 6.42907,32.3542 8.92907,30.5209 12.5,30C 23.1615,29.5002 33.8281,29.3335 44.5,29.5 Z"/></g>
<g><path style="opacity:1" fill="#ea9926" d="M 46.5,11.5 C 46.5,20.8333 46.5,30.1667 46.5,39.5C 45.1667,39.5 43.8333,39.5 42.5,39.5C 40.3741,33.8433 37.2074,33.1767 33,37.5C 32.5172,38.448 32.3505,39.448 32.5,40.5C 27.5,40.5 22.5,40.5 17.5,40.5C 17.5,39.8333 17.5,39.1667 17.5,38.5C 21.2148,38.577 24.8815,38.2436 28.5,37.5C 28.5,35.8333 28.5,34.1667 28.5,32.5C 25.9407,32.8016 23.6074,32.4682 21.5,31.5C 29.5729,32.1318 37.2395,31.4651 44.5,29.5C 44.5,28.5 44.5,27.5 44.5,26.5C 44.5,26.1667 44.5,25.8333 44.5,25.5C 44.5,22.1667 44.5,18.8333 44.5,15.5C 45.1667,14.1667 45.8333,12.8333 46.5,11.5 Z"/></g>
<g><path style="opacity:1" fill="#f2a629" d="M 21.5,31.5 C 23.6074,32.4682 25.9407,32.8016 28.5,32.5C 28.5,34.1667 28.5,35.8333 28.5,37.5C 24.8815,38.2436 21.2148,38.577 17.5,38.5C 15.2428,34.1845 12.2428,33.5178 8.5,36.5C 7.90935,35.8485 7.24269,35.1818 6.5,34.5C 11.3,32.4331 16.3,31.4331 21.5,31.5 Z"/></g>
<g><path style="opacity:1" fill="#4d4c49" d="M 17.5,38.5 C 17.5,39.1667 17.5,39.8333 17.5,40.5C 14.1667,44.5 10.8333,44.5 7.5,40.5C 7.43255,39.0413 7.76589,37.7079 8.5,36.5C 12.2428,33.5178 15.2428,34.1845 17.5,38.5 Z"/></g>
<g><path style="opacity:1" fill="#9c9c9c" d="M 10.5,37.5 C 11.8333,37.5 13.1667,37.5 14.5,37.5C 14.5,38.8333 14.5,40.1667 14.5,41.5C 13.1667,41.5 11.8333,41.5 10.5,41.5C 10.5,40.1667 10.5,38.8333 10.5,37.5 Z"/></g>
<g><path style="opacity:1" fill="#4d4c49" d="M 42.5,39.5 C 41.1346,43.2542 38.4679,44.4209 34.5,43C 33.9341,42.0053 33.2674,41.172 32.5,40.5C 32.3505,39.448 32.5172,38.448 33,37.5C 37.2074,33.1767 40.3741,33.8433 42.5,39.5 Z"/></g>
<g><path style="opacity:1" fill="#9c9c9c" d="M 35.5,37.5 C 36.8333,37.5 38.1667,37.5 39.5,37.5C 39.5,38.8333 39.5,40.1667 39.5,41.5C 38.1667,41.5 36.8333,41.5 35.5,41.5C 35.5,40.1667 35.5,38.8333 35.5,37.5 Z"/></g>
</svg>
