<svg version="1.0" xmlns="http://www.w3.org/2000/svg" width="200.000000pt" height="200.000000pt" viewBox="0 0 200.000000 200.000000" preserveAspectRatio="xMidYMid meet" style="width: 463.22px; height: auto;"> <g transform="translate(0.000000,200.000000) scale(0.100000,-0.100000)" fill="#000000" stroke="none"> <path d="M919 1517 c-19 -7 -46 -21 -60 -30 -15 -11 -43 -17 -77 -17 -89 0 -155 -38 -193 -112 -25 -49 -24 -50 14 -29 49 29 89 34 151 18 31 -9 65 -13 76 -10 48 13 140 -87 140 -153 0 -59 -74 -142 -178 -200 -46 -26 -72 -49 -93 -82 -52 -83 -73 -193 -49 -258 8 -19 7 -31 -2 -43 -7 -9 -8 -13 -4 -9 5 4 16 2 25 -5 14 -11 14 -10 2 6 -9 12 -10 17 -2 17 8 0 9 5 1 19 -5 11 -10 38 -10 61 0 67 51 149 176 281 129 137 149 170 141 243 -3 32 -2 44 3 31 14 -33 11 -95 -7 -133 -9 -19 -42 -63 -74 -96 -116 -125 -180 -248 -178 -345 l0 -36 14 43 c30 96 142 200 302 281 96 48 99 36 3 -15 -110 -59 -209 -139 -251 -205 -26 -42 -34 -65 -37 -114 -4 -61 12 -114 39 -131 8 -5 8 -1 0 14 -16 30 -13 89 6 129 27 58 120 149 216 214 126 85 186 114 201 98 8 -9 8 -10 -1 -5 -13 7 -99 -41 -160 -90 -57 -47 -103 -142 -109 -225 l-4 -64 13 47 c18 61 53 106 135 172 37 29 79 67 93 83 23 26 24 31 11 40 -13 8 -13 11 -2 18 9 5 11 4 6 -3 -4 -7 -3 -12 1 -12 5 0 14 9 20 19 10 15 9 22 -6 36 -17 15 -22 15 -55 1 -32 -13 -61 -6 -36 9 18 11 -7 33 -35 29 -14 -1 -58 -20 -98 -42 -39 -21 -79 -37 -87 -34 -13 5 -13 3 0 -14 8 -10 11 -16 6 -12 -4 4 -13 3 -20 -3 -27 -23 -86 -58 -86 -51 0 7 31 47 64 85 9 9 16 21 16 25 0 14 56 63 63 55 4 -3 7 1 7 10 0 9 4 17 8 17 5 0 17 7 28 16 18 14 18 14 -6 3 l-25 -12 20 24 c27 32 56 85 49 91 -2 3 -7 15 -9 28 -4 21 -3 21 20 6 13 -9 31 -16 39 -16 8 0 27 -5 43 -12 15 -6 34 -10 42 -9 7 1 10 -2 6 -8 -3 -7 0 -8 9 -5 9 3 16 1 16 -6 0 -6 5 -8 10 -5 6 3 10 2 10 -3 0 -5 16 -14 36 -20 26 -8 34 -8 31 1 -8 27 -124 77 -209 92 -47 7 -74 31 -57 51 6 7 8 18 5 23 -4 5 -2 13 4 16 8 5 7 11 -1 21 -9 11 -8 14 2 15 8 0 5 4 -6 9 -11 5 -14 9 -7 9 6 1 12 5 12 10 0 5 -13 4 -29 -2 -21 -8 -36 -8 -53 0 -21 10 -20 11 15 10 23 -1 43 5 52 16 8 9 10 12 3 7 -19 -15 -32 -12 -18 5 7 8 23 15 35 15 31 0 50 23 32 39 -21 17 -74 25 -81 12 -10 -16 -26 -13 -26 5 0 8 -4 13 -9 10 -5 -3 -12 1 -15 10 -3 9 -2 12 5 9 5 -4 17 -1 26 7 9 7 14 8 11 2 -4 -6 8 -10 35 -9 59 2 105 -14 132 -47 13 -15 29 -28 35 -28 6 0 9 -4 6 -9 -3 -4 6 -13 20 -20 14 -6 22 -16 19 -21 -3 -6 -2 -10 4 -10 5 0 11 5 13 12 2 6 14 -3 27 -20 12 -18 26 -30 30 -28 4 3 8 -1 8 -9 0 -23 -11 -18 -36 16 -17 22 -26 28 -35 20 -7 -6 -17 -7 -21 -3 -5 4 -5 1 -1 -6 4 -7 12 -10 17 -6 6 3 21 -6 35 -21 14 -15 31 -25 38 -22 7 3 17 2 22 -1 18 -12 56 -73 50 -79 -3 -3 -1 -12 5 -19 6 -7 12 -44 15 -81 l4 -68 -14 39 c-8 22 -24 49 -36 60 l-22 21 18 -40 c10 -25 17 -66 17 -108 0 -56 -5 -79 -31 -130 l-32 -62 36 40 c62 69 89 138 89 230 0 66 -5 90 -27 137 -28 61 -90 126 -175 185 -29 20 -52 38 -50 39 1 2 22 -4 46 -12 24 -8 46 -12 49 -10 3 3 -4 8 -14 12 -10 4 -57 23 -104 42 -94 40 -166 49 -221 29z m-59 -67 c-13 -8 -13 -10 1 -15 8 -3 15 -15 16 -26 2 -18 0 -18 -18 5 -11 15 -25 24 -30 21 -5 -4 -9 -2 -9 4 0 5 8 12 18 14 30 8 38 7 22 -3z m70 -2 c0 -7 -4 -19 -9 -26 -7 -11 -10 -10 -15 3 -10 26 -7 35 9 35 8 0 15 -6 15 -12z m115 -8 c23 -10 14 -13 -31 -10 -22 1 -35 -6 -48 -23 -13 -17 -25 -22 -42 -19 -14 2 -26 8 -29 12 -3 5 4 6 15 3 13 -4 30 2 43 14 35 32 58 38 92 23z m-309 -9 c5 -6 30 -11 56 -13 25 -2 44 -5 42 -7 -2 -3 6 -15 18 -28 l21 -23 -74 2 -74 1 60 6 60 6 -25 18 c-13 9 -39 17 -57 17 -19 0 -33 5 -33 12 0 6 -3 8 -6 5 -4 -4 -1 -14 7 -24 12 -15 12 -16 -3 -10 -10 3 -18 2 -18 -3 0 -5 -13 -7 -30 -5 -16 2 -30 -1 -30 -6 0 -5 -5 -9 -11 -9 -8 0 -8 5 1 15 7 8 17 15 22 15 5 0 18 9 30 20 25 23 30 24 44 11z m259 -126 c20 -16 19 -16 -5 -10 l-25 6 25 -20 c14 -11 21 -20 15 -20 -15 0 -95 75 -88 82 6 7 48 -13 78 -38z m85 -375 c-6 -11 -12 -20 -14 -20 -2 0 -2 9 1 20 3 11 9 20 15 20 5 0 4 -9 -2 -20z m-54 -39 c-17 -18 -34 -27 -44 -24 -10 4 -13 2 -8 -5 3 -6 2 -13 -3 -16 -17 -11 -23 14 -7 30 9 8 16 12 16 8 0 -4 9 1 20 11 11 10 20 14 20 10 0 -5 5 -4 12 3 26 26 20 10 -6 -17z m134 4 c-6 -8 -8 -20 -4 -26 4 -8 3 -9 -4 -5 -7 4 -12 2 -12 -3 0 -6 -7 -11 -15 -11 -9 0 -18 -7 -22 -16 -3 -8 -17 -20 -30 -25 -15 -6 -22 -14 -17 -21 4 -7 4 -10 -1 -6 -5 5 -14 -1 -22 -12 -8 -11 -20 -20 -26 -20 -7 0 -3 7 7 15 11 8 17 15 13 15 -8 0 25 32 98 95 43 37 55 44 35 20z m-224 -50 c-5 -33 -66 -75 -66 -45 0 5 7 7 15 3 10 -3 15 0 13 8 -2 7 4 13 12 14 8 0 16 6 16 13 2 18 4 22 8 22 2 0 3 -7 2 -15z m-66 -68 c0 -2 -10 -12 -21 -23 -22 -19 -22 -19 -10 4 10 18 31 31 31 19z" class=""></path> <path d="M999 883 c-13 -16 -12 -17 4 -4 16 13 21 21 13 21 -2 0 -10 -8 -17 -17z"></path>   <path d="M1106 1241 c-10 -4 -31 -6 -47 -5 -47 3 -33 -13 18 -21 93 -14 232 -82 217 -107 -4 -6 -3 -8 3 -5 13 8 14 -83 2 -103 -7 -11 -8 -8 -4 10 5 21 4 22 -5 8 -8 -13 -7 -23 1 -37 10 -15 9 -31 -8 -82 -12 -35 -20 -65 -18 -67 8 -9 55 110 65 165 11 63 -1 150 -19 139 -4 -3 -17 8 -29 23 -21 28 -99 64 -154 70 -9 1 -8 4 2 11 17 11 4 12 -24 1z"></path>  <path d="M905 980 c-17 -18 -17 -20 -2 -14 9 3 17 11 17 16 0 6 7 7 16 4 8 -3 12 -2 9 4 -9 15 -20 12 -40 -10z"></path> <path d="M1267 960 c-9 -11 -14 -20 -11 -20 3 0 -2 -7 -11 -17 -9 -9 -34 -40 -55 -68 -22 -29 -51 -62 -66 -74 -40 -32 -17 -25 39 11 54 35 100 90 117 144 14 42 10 50 -13 24z"></path>    <path d="M930 449 c64 -10 210 -8 217 3 2 5 -58 7 -134 7 -116 -1 -129 -3 -83 -10z" class=""></path>             </g> </svg>