<?xml version="1.0" encoding="UTF-8"?>
<!DOCTYPE svg PUBLIC "-//W3C//DTD SVG 1.1//EN" "http://www.w3.org/Graphics/SVG/1.1/DTD/svg11.dtd">
<svg xmlns="http://www.w3.org/2000/svg" version="1.1" width="96px" height="96px" style="shape-rendering:geometricPrecision; text-rendering:geometricPrecision; image-rendering:optimizeQuality; fill-rule:evenodd; clip-rule:evenodd" xmlns:xlink="http://www.w3.org/1999/xlink">
<g><path style="opacity:0.828" fill="#e4d7c3" d="M 17.5,9.5 C 22.8187,10.6248 27.3187,13.2914 31,17.5C 31.49,18.7932 31.6567,20.1266 31.5,21.5C 26.1813,20.3752 21.6813,17.7086 18,13.5C 17.51,12.2068 17.3433,10.8734 17.5,9.5 Z"/></g>
<g><path style="opacity:0.969" fill="#fecc81" d="M 49.5,23.5 C 49.5,26.5 49.5,29.5 49.5,32.5C 38.9342,30.5618 34.2675,35.0618 35.5,46C 35.6667,48.8333 35.8333,51.6667 36,54.5C 36.7175,55.4506 37.5509,55.6172 38.5,55C 39.187,49.198 39.8537,43.3646 40.5,37.5C 43.8648,34.7599 46.8648,35.0933 49.5,38.5C 49.5,40.5 49.5,42.5 49.5,44.5C 49.5,46.5 49.5,48.5 49.5,50.5C 49.5,55.1667 49.5,59.8333 49.5,64.5C 46.4395,68.3115 42.4395,70.6448 37.5,71.5C 34.3144,65.7817 30.6477,60.4484 26.5,55.5C 27.7653,54.5207 29.0986,53.5207 30.5,52.5C 30.6668,38.1601 33.8334,24.4935 40,11.5C 43,8.83333 46,8.83333 49,11.5C 49.4988,15.4862 49.6655,19.4862 49.5,23.5 Z"/></g>
<g><path style="opacity:0.828" fill="#e4d6c3" d="M 73.5,9.5 C 74.8333,9.5 76.1667,9.5 77.5,9.5C 77.9193,12.3245 76.9193,14.4912 74.5,16C 72.5448,16.9533 70.8782,18.2866 69.5,20C 67.6547,21.128 65.6547,21.628 63.5,21.5C 63.3433,20.1266 63.51,18.7932 64,17.5C 67.3575,14.9688 70.5242,12.3021 73.5,9.5 Z"/></g>
<g><path style="opacity:0.825" fill="#e6d5c3" d="M 11.5,21.5 C 16.698,21.7308 21.698,22.8974 26.5,25C 27.3802,26.3561 27.7135,27.8561 27.5,29.5C 22.302,29.2692 17.302,28.1026 12.5,26C 11.6198,24.6439 11.2865,23.1439 11.5,21.5 Z"/></g>
<g><path style="opacity:0.975" fill="#feb64d" d="M 72.5,67.5 C 68.3523,72.4484 64.6856,77.7817 61.5,83.5C 51.0579,81.3685 47.0579,75.0352 49.5,64.5C 49.5,59.8333 49.5,55.1667 49.5,50.5C 52.6257,46.5993 55.7924,46.5993 59,50.5C 59.1911,56.0829 59.6911,61.5829 60.5,67C 61.4491,67.6172 62.2825,67.4506 63,66.5C 63.6667,60.8333 63.6667,55.1667 63,49.5C 60.0212,43.8053 55.5212,42.1387 49.5,44.5C 49.5,42.5 49.5,40.5 49.5,38.5C 49.5,36.5 49.5,34.5 49.5,32.5C 49.5,29.5 49.5,26.5 49.5,23.5C 52.6693,20.8881 55.8359,20.8881 59,23.5C 65.1666,36.4935 68.3332,50.1601 68.5,64.5C 69.9014,65.5207 71.2347,66.5207 72.5,67.5 Z"/></g>
<g><path style="opacity:0.825" fill="#e6d5c3" d="M 77.5,21.5 C 79.5,21.5 81.5,21.5 83.5,21.5C 83.7135,23.1439 83.3802,24.6439 82.5,26C 77.698,28.1026 72.698,29.2692 67.5,29.5C 67.2865,27.8561 67.6198,26.3561 68.5,25C 71.7177,24.0997 74.7177,22.933 77.5,21.5 Z"/></g>
<g><path style="opacity:1" fill="#f2a35b" d="M 49.5,32.5 C 49.5,34.5 49.5,36.5 49.5,38.5C 46.8648,35.0933 43.8648,34.7599 40.5,37.5C 39.8537,43.3646 39.187,49.198 38.5,55C 37.5509,55.6172 36.7175,55.4506 36,54.5C 35.8333,51.6667 35.6667,48.8333 35.5,46C 34.2675,35.0618 38.9342,30.5618 49.5,32.5 Z"/></g>
<g><path style="opacity:1" fill="#e89632" d="M 49.5,50.5 C 49.5,48.5 49.5,46.5 49.5,44.5C 55.5212,42.1387 60.0212,43.8053 63,49.5C 63.6667,55.1667 63.6667,60.8333 63,66.5C 62.2825,67.4506 61.4491,67.6172 60.5,67C 59.6911,61.5829 59.1911,56.0829 59,50.5C 55.7924,46.5993 52.6257,46.5993 49.5,50.5 Z"/></g>
<g><path style="opacity:1" fill="#ffe5a6" d="M 52.5,51.5 C 55.9496,50.7564 57.6162,52.0897 57.5,55.5C 55.5,55.5 53.5,55.5 51.5,55.5C 51.4326,54.0413 51.7659,52.7079 52.5,51.5 Z"/></g>
<g><path style="opacity:0.956" fill="#0b9788" d="M 26.5,55.5 C 30.6477,60.4484 34.3144,65.7817 37.5,71.5C 35.0734,73.5576 32.4068,75.3909 29.5,77C 28.2161,77.6838 27.0495,77.5171 26,76.5C 23.1506,71.6566 20.3172,66.8233 17.5,62C 20.0827,59.364 23.0827,57.1973 26.5,55.5 Z"/></g>
<g><path style="opacity:0.956" fill="#0c9687" d="M 72.5,67.5 C 75.9173,69.1973 78.9173,71.364 81.5,74C 78.6828,78.8233 75.8494,83.6566 73,88.5C 71.9505,89.5171 70.7839,89.6838 69.5,89C 66.5932,87.3909 63.9266,85.5576 61.5,83.5C 64.6856,77.7817 68.3523,72.4484 72.5,67.5 Z"/></g>
<g><path style="opacity:1" fill="#a6dad5" d="M 28.5,67.5 C 31.8606,68.2032 32.1939,69.5365 29.5,71.5C 27.3576,70.5629 27.0243,69.2296 28.5,67.5 Z"/></g>
<g><path style="opacity:1" fill="#a6dad5" d="M 68.5,79.5 C 71.8606,80.2032 72.1939,81.5365 69.5,83.5C 67.3576,82.5629 67.0243,81.2296 68.5,79.5 Z"/></g>
</svg>
