<?xml version="1.0" encoding="UTF-8"?>
<!DOCTYPE svg PUBLIC "-//W3C//DTD SVG 1.1//EN" "http://www.w3.org/Graphics/SVG/1.1/DTD/svg11.dtd">
<svg xmlns="http://www.w3.org/2000/svg" version="1.1" width="62px" height="62px" style="shape-rendering:geometricPrecision; text-rendering:geometricPrecision; image-rendering:optimizeQuality; fill-rule:evenodd; clip-rule:evenodd" xmlns:xlink="http://www.w3.org/1999/xlink">
<g><path style="opacity:1" fill="#212235" d="M 34.5,11.5 C 33.7659,12.7079 33.4326,14.0413 33.5,15.5C 33.1667,15.5 32.8333,15.5 32.5,15.5C 32.5,14.1667 32.5,12.8333 32.5,11.5C 32.9804,8.31479 32.3137,5.48146 30.5,3C 28.0507,2.22462 26.384,3.05796 25.5,5.5C 21.2047,6.66085 16.8713,6.82752 12.5,6C 10.4957,1.99912 7.82906,1.49912 4.5,4.5C 3.50328,21.9921 3.16995,39.6588 3.5,57.5C 2.33799,39.6714 2.17132,21.6714 3,3.5C 3.83333,2.66667 4.66667,1.83333 5.5,1C 14.1667,0.333333 22.8333,0.333333 31.5,1C 32.4162,1.37424 33.2496,1.87424 34,2.5C 34.498,5.48162 34.6646,8.48162 34.5,11.5 Z"/></g>
<g><path style="opacity:1" fill="#3682cd" d="M 32.5,11.5 C 32.1667,11.5 31.8333,11.5 31.5,11.5C 30.8485,10.9094 30.1818,10.2427 29.5,9.5C 28.8933,9.62358 28.56,9.95691 28.5,10.5C 20.5,10.5 12.5,10.5 4.5,10.5C 4.5,8.5 4.5,6.5 4.5,4.5C 7.82906,1.49912 10.4957,1.99912 12.5,6C 16.8713,6.82752 21.2047,6.66085 25.5,5.5C 26.384,3.05796 28.0507,2.22462 30.5,3C 32.3137,5.48146 32.9804,8.31479 32.5,11.5 Z"/></g>
<g><path style="opacity:0.824" fill="#4d4847" d="M 40.5,4.5 C 41.6491,4.79106 42.3158,5.62439 42.5,7C 42.1667,7.83333 41.8333,8.66667 41.5,9.5C 40.5481,7.95467 40.2148,6.28801 40.5,4.5 Z"/></g>
<g><path style="opacity:0.859" fill="#3e3931" d="M 51.5,9.5 C 52.5,9.5 53.5,9.5 54.5,9.5C 54.8333,12.5 53.5,13.8333 50.5,13.5C 50.4326,12.0413 50.7659,10.7079 51.5,9.5 Z"/></g>
<g><path style="opacity:1" fill="#32363c" d="M 31.5,11.5 C 30.6782,13.5499 29.6782,13.2165 28.5,10.5C 28.56,9.95691 28.8933,9.62358 29.5,9.5C 30.1818,10.2427 30.8485,10.9094 31.5,11.5 Z"/></g>
<g><path style="opacity:0.855" fill="#4e473c" d="M 54.5,21.5 C 56.288,21.2148 57.9547,21.5481 59.5,22.5C 58.6667,22.8333 57.8333,23.1667 57,23.5C 55.6244,23.3158 54.7911,22.6491 54.5,21.5 Z"/></g>
<g><path style="opacity:0.973" fill="#484338" d="M 50.5,31.5 C 52.3841,31.7118 53.7174,32.7118 54.5,34.5C 51.5812,35.9318 50.2479,34.9318 50.5,31.5 Z"/></g>
<g><path style="opacity:0.872" fill="#202233" d="M 35.5,39.5 C 41.8421,39.3338 48.1754,39.5005 54.5,40C 55.8333,41.3333 55.8333,42.6667 54.5,44C 48.1754,44.4995 41.8421,44.6662 35.5,44.5C 35.5,42.8333 35.5,41.1667 35.5,39.5 Z"/></g>
<g><path style="opacity:0.811" fill="#1f2132" d="M 36.5,45.5 C 42.1764,45.3339 47.8431,45.5006 53.5,46C 55.5268,47.3957 55.8602,49.0624 54.5,51C 48.5,51.6667 42.5,51.6667 36.5,51C 35.2475,49.1722 35.2475,47.3388 36.5,45.5 Z"/></g>
<g><path style="opacity:1" fill="#1d1e2b" d="M 4.5,4.5 C 4.5,6.5 4.5,8.5 4.5,10.5C 4.5,15.8333 4.5,21.1667 4.5,26.5C 4.5,31.1667 4.5,35.8333 4.5,40.5C 4.5,42.8333 4.5,45.1667 4.5,47.5C 4.33537,50.5184 4.50204,53.5184 5,56.5C 5.5,57 6,57.5 6.5,58C 14.5,58.6667 22.5,58.6667 30.5,58C 31,57.5 31.5,57 32,56.5C 32.498,53.5184 32.6646,50.5184 32.5,47.5C 32.5,45.1667 32.5,42.8333 32.5,40.5C 32.5,39.5 32.5,38.5 32.5,37.5C 35.5,36.8333 38.5,36.1667 41.5,35.5C 42.8333,34.5 42.8333,33.5 41.5,32.5C 41.5,31.8333 41.8333,31.5 42.5,31.5C 49.8606,29.6018 52.3606,24.9352 50,17.5C 45.0704,11.7236 39.5704,11.0569 33.5,15.5C 33.4326,14.0413 33.7659,12.7079 34.5,11.5C 47.808,8.64093 53.6413,13.9743 52,27.5C 48.8172,30.3497 45.9839,33.5164 43.5,37C 40.5184,37.498 37.5184,37.6646 34.5,37.5C 34.8132,44.7546 34.4799,51.9213 33.5,59C 24.2679,60.6114 14.9346,60.9447 5.5,60C 4.61947,59.2917 3.9528,58.4584 3.5,57.5C 3.16995,39.6588 3.50328,21.9921 4.5,4.5 Z"/></g>
<g><path style="opacity:1" fill="#88bfe1" d="M 4.5,47.5 C 8.83333,47.5 13.1667,47.5 17.5,47.5C 17.2627,48.791 17.596,49.791 18.5,50.5C 22.1667,51.8333 25.8333,51.8333 29.5,50.5C 30.1001,49.0998 31.1001,48.0998 32.5,47.5C 32.6646,50.5184 32.498,53.5184 32,56.5C 31.5,57 31,57.5 30.5,58C 22.5,58.6667 14.5,58.6667 6.5,58C 6,57.5 5.5,57 5,56.5C 4.50204,53.5184 4.33537,50.5184 4.5,47.5 Z"/></g>
<g><path style="opacity:1" fill="#262c3d" d="M 10.5,54.5 C 15.8746,54.1718 21.2079,54.5052 26.5,55.5C 23.8333,55.8333 21.1667,56.1667 18.5,56.5C 15.4098,56.4783 12.7432,55.8117 10.5,54.5 Z"/></g>
<g><path style="opacity:1" fill="#282e42" d="M 29.5,50.5 C 25.8333,51.8333 22.1667,51.8333 18.5,50.5C 18.5,49.1667 18.5,47.8333 18.5,46.5C 22.1667,46.5 25.8333,46.5 29.5,46.5C 29.5,47.8333 29.5,49.1667 29.5,50.5 Z"/></g>
<g><path style="opacity:1" fill="#70b2e3" d="M 4.5,40.5 C 8.83333,40.5 13.1667,40.5 17.5,40.5C 17.1568,42.4832 17.8235,43.8166 19.5,44.5C 23.0419,44.8128 26.3752,44.4794 29.5,43.5C 30.1001,42.0998 31.1001,41.0998 32.5,40.5C 32.5,42.8333 32.5,45.1667 32.5,47.5C 31.1001,48.0998 30.1001,49.0998 29.5,50.5C 29.5,49.1667 29.5,47.8333 29.5,46.5C 25.8333,46.5 22.1667,46.5 18.5,46.5C 18.5,47.8333 18.5,49.1667 18.5,50.5C 17.596,49.791 17.2627,48.791 17.5,47.5C 13.1667,47.5 8.83333,47.5 4.5,47.5C 4.5,45.1667 4.5,42.8333 4.5,40.5 Z"/></g>
<g><path style="opacity:1" fill="#25293d" d="M 29.5,43.5 C 26.3752,44.4794 23.0419,44.8128 19.5,44.5C 17.8115,40.3439 19.3115,38.6772 24,39.5C 27.5941,38.717 29.4274,40.0504 29.5,43.5 Z"/></g>
<g><path style="opacity:1" fill="#5da2dd" d="M 4.5,26.5 C 6.5,26.5 8.5,26.5 10.5,26.5C 9.6171,30.9536 10.9504,34.4536 14.5,37C 20.4908,37.4995 26.4908,37.6662 32.5,37.5C 32.5,38.5 32.5,39.5 32.5,40.5C 31.1001,41.0998 30.1001,42.0998 29.5,43.5C 29.4274,40.0504 27.5941,38.717 24,39.5C 19.3115,38.6772 17.8115,40.3439 19.5,44.5C 17.8235,43.8166 17.1568,42.4832 17.5,40.5C 13.1667,40.5 8.83333,40.5 4.5,40.5C 4.5,35.8333 4.5,31.1667 4.5,26.5 Z"/></g>
<g><path style="opacity:1" fill="#99bbf0" d="M 12.5,27.5 C 16.6139,28.8261 21.1139,29.4927 26,29.5C 30.6795,29.4991 35.1795,29.1658 39.5,28.5C 40.1667,29.8333 40.8333,31.1667 41.5,32.5C 42.8333,33.5 42.8333,34.5 41.5,35.5C 32.4938,35.6664 23.4938,35.4998 14.5,35C 11.5924,32.9304 10.9257,30.4304 12.5,27.5 Z"/></g>
<g><path style="opacity:1" fill="#282e3e" d="M 32.5,15.5 C 32.8333,15.5 33.1667,15.5 33.5,15.5C 33.1961,16.1499 32.8627,16.8165 32.5,17.5C 34.3274,19.4872 35.3274,21.8205 35.5,24.5C 39.467,25.1336 41.8003,27.4669 42.5,31.5C 41.8333,31.5 41.5,31.8333 41.5,32.5C 40.8333,31.1667 40.1667,29.8333 39.5,28.5C 38.3646,26.7868 36.698,26.1201 34.5,26.5C 34.0008,19.5728 30.3342,17.0728 23.5,19C 21.393,20.2635 20.393,22.0968 20.5,24.5C 17.0581,23.8283 14.3914,24.8283 12.5,27.5C 10.9257,30.4304 11.5924,32.9304 14.5,35C 23.4938,35.4998 32.4938,35.6664 41.5,35.5C 38.5,36.1667 35.5,36.8333 32.5,37.5C 26.4908,37.6662 20.4908,37.4995 14.5,37C 10.9504,34.4536 9.6171,30.9536 10.5,26.5C 11.9616,25.5423 13.2949,24.3756 14.5,23C 18.1208,22.8217 20.7875,21.155 22.5,18C 25.799,16.9358 29.1323,16.1025 32.5,15.5 Z"/></g>
<g><path style="opacity:1" fill="#b8d4f9" d="M 39.5,28.5 C 35.1795,29.1658 30.6795,29.4991 26,29.5C 21.1139,29.4927 16.6139,28.8261 12.5,27.5C 14.3914,24.8283 17.0581,23.8283 20.5,24.5C 20.393,22.0968 21.393,20.2635 23.5,19C 30.3342,17.0728 34.0008,19.5728 34.5,26.5C 36.698,26.1201 38.3646,26.7868 39.5,28.5 Z"/></g>
<g><path style="opacity:1" fill="#f3d148" d="M 42.5,31.5 C 41.8003,27.4669 39.467,25.1336 35.5,24.5C 35.3274,21.8205 34.3274,19.4872 32.5,17.5C 32.8627,16.8165 33.1961,16.1499 33.5,15.5C 39.5704,11.0569 45.0704,11.7236 50,17.5C 52.3606,24.9352 49.8606,29.6018 42.5,31.5 Z"/></g>
<g><path style="opacity:1" fill="#3c8ad5" d="M 4.5,10.5 C 12.5,10.5 20.5,10.5 28.5,10.5C 29.6782,13.2165 30.6782,13.5499 31.5,11.5C 31.8333,11.5 32.1667,11.5 32.5,11.5C 32.5,12.8333 32.5,14.1667 32.5,15.5C 29.1323,16.1025 25.799,16.9358 22.5,18C 20.7875,21.155 18.1208,22.8217 14.5,23C 13.2949,24.3756 11.9616,25.5423 10.5,26.5C 8.5,26.5 6.5,26.5 4.5,26.5C 4.5,21.1667 4.5,15.8333 4.5,10.5 Z"/></g>
</svg>
